<svg width="14" height="79" viewBox="0 0 14 79" fill="none" xmlns="http://www.w3.org/2000/svg">
<path d="M0.175781 2.0918L0.175781 -6.98073e-07L13.0254 -2.25969e-07L13.0254 7.25977L11.25 7.25977L11.25 2.0918L7.24219 2.0918L7.24219 6.92578L5.47559 6.92578L5.47559 2.0918L0.175781 2.0918ZM5.0625 18C4.25391 18 3.53613 17.8945 2.90918 17.6836C2.28223 17.4727 1.75195 17.165 1.31836 16.7607C0.890624 16.3564 0.562499 15.8701 0.333983 15.3018C0.111327 14.7334 -8.20597e-07 14.0918 -7.83421e-07 13.377C-7.48684e-07 12.709 0.111327 12.0967 0.333984 11.54C0.562499 10.9834 0.890624 10.5 1.31836 10.0898C1.75195 9.68555 2.28223 9.37207 2.90918 9.14941C3.53613 8.92676 4.25391 8.81543 5.0625 8.81543C6.13477 8.81543 7.04297 9 7.78711 9.36914C8.53711 9.74414 9.1084 10.2773 9.50098 10.9687C9.89355 11.6602 10.0898 12.4834 10.0898 13.4385C10.0898 14.335 9.89355 15.126 9.50098 15.8115C9.1084 16.4971 8.53711 17.0332 7.78711 17.4199C7.03711 17.8066 6.12891 18 5.0625 18ZM5.0625 10.9424C4.35351 10.9424 3.74707 11.0273 3.24316 11.1973C2.73926 11.373 2.35254 11.6426 2.08301 12.0059C1.81934 12.3691 1.6875 12.8379 1.6875 13.4121C1.6875 13.9863 1.81934 14.4551 2.08301 14.8184C2.35254 15.1816 2.73926 15.4482 3.24316 15.6182C3.74707 15.7881 4.35351 15.873 5.0625 15.873C5.77148 15.873 6.37207 15.7881 6.86426 15.6182C7.3623 15.4482 7.74023 15.1816 7.99805 14.8184C8.26172 14.4551 8.39355 13.9834 8.39355 13.4033C8.39355 12.5479 8.10644 11.9238 7.53223 11.5312C6.95801 11.1387 6.13476 10.9424 5.0625 10.9424ZM0.17578 22.4473L0.17578 20.373L13.8516 20.373L13.8516 22.4473L0.17578 22.4473ZM0.17578 27.4746L0.17578 25.4004L13.8516 25.4004L13.8516 27.4746L0.17578 27.4746ZM5.0625 39.041C4.2539 39.041 3.53613 38.9355 2.90918 38.7246C2.28222 38.5137 1.75195 38.2061 1.31836 37.8018C0.890623 37.3975 0.562498 36.9111 0.333982 36.3428C0.111326 35.7744 -1.91483e-06 35.1328 -1.87765e-06 34.418C-1.84291e-06 33.75 0.111326 33.1377 0.333983 32.5811C0.562498 32.0244 0.890623 31.541 1.31836 31.1309C1.75195 30.7266 2.28222 30.4131 2.90918 30.1904C3.53613 29.9678 4.2539 29.8564 5.0625 29.8564C6.13476 29.8564 7.04297 30.041 7.78711 30.4102C8.53711 30.7852 9.1084 31.3184 9.50097 32.0098C9.89355 32.7012 10.0898 33.5244 10.0898 34.4795C10.0898 35.376 9.89355 36.167 9.50097 36.8525C9.1084 37.5381 8.53711 38.0742 7.78711 38.4609C7.03711 38.8477 6.1289 39.041 5.0625 39.041ZM5.0625 31.9834C4.35351 31.9834 3.74707 32.0684 3.24316 32.2383C2.73926 32.4141 2.35254 32.6836 2.08301 33.0469C1.81933 33.4102 1.6875 33.8789 1.6875 34.4531C1.6875 35.0273 1.81933 35.4961 2.08301 35.8594C2.35254 36.2227 2.73926 36.4893 3.24316 36.6592C3.74707 36.8291 4.35351 36.9141 5.0625 36.9141C5.77148 36.9141 6.37207 36.8291 6.86426 36.6592C7.3623 36.4893 7.74023 36.2227 7.99804 35.8594C8.26172 35.4961 8.39355 35.0244 8.39355 34.4443C8.39355 33.5889 8.10644 32.9648 7.53222 32.5723C6.95801 32.1797 6.13476 31.9834 5.0625 31.9834ZM0.184568 49.3682L4.71093 48.1377C4.93359 48.0791 5.20312 48.0088 5.51953 47.9268C5.83593 47.8447 6.16113 47.7627 6.49511 47.6807C6.83496 47.5986 7.14843 47.5225 7.43554 47.4521C7.72265 47.3877 7.94531 47.3379 8.10351 47.3027L8.10351 47.2324C7.94531 47.2031 7.72265 47.1562 7.43554 47.0918C7.14843 47.0273 6.83496 46.9541 6.49511 46.8721C6.15527 46.79 5.82422 46.708 5.50195 46.626C5.17968 46.5498 4.90429 46.4795 4.67578 46.415L0.184568 45.123L0.184568 42.8555L9.91406 40.1309L9.91406 42.2227L5.08008 43.4883C4.75195 43.5703 4.39746 43.6494 4.0166 43.7256C3.63574 43.8076 3.27246 43.8779 2.92676 43.9365C2.58105 43.9951 2.29687 44.0391 2.07422 44.0684L2.07422 44.1387C2.23242 44.1621 2.43164 44.1943 2.67187 44.2354C2.91797 44.2764 3.17285 44.3232 3.43652 44.376C3.70605 44.4287 3.95801 44.4814 4.19238 44.5342C4.43261 44.5869 4.62597 44.6367 4.77246 44.6836L9.91406 46.1777L9.91406 48.4365L4.77246 49.8691C4.5498 49.9336 4.26855 50.0039 3.92871 50.0801C3.59472 50.1562 3.25781 50.2236 2.91797 50.2822C2.58398 50.3467 2.30566 50.3877 2.08301 50.4053L2.08301 50.4756C2.28222 50.499 2.55176 50.54 2.8916 50.5986C3.2373 50.6631 3.60351 50.7363 3.99023 50.8184C4.38281 50.9004 4.74609 50.9854 5.08008 51.0732L9.91406 52.3652L9.91406 54.4219L0.184568 51.6797L0.184568 49.3682ZM9.90527 69.249L0.175778 69.249L0.175778 67.623L1.48535 67.3418L1.48535 67.2275C1.15136 67.0225 0.873043 66.7617 0.650387 66.4453C0.43359 66.1289 0.272457 65.7773 0.166989 65.3906C0.0556606 65.0039 -3.44708e-06 64.5967 -3.42484e-06 64.1689C-3.38675e-06 63.4365 0.123044 62.8096 0.369137 62.2881C0.62109 61.7725 1.00781 61.377 1.52929 61.1016C2.05078 60.8262 2.72461 60.6885 3.55078 60.6885L9.90527 60.6885L9.90527 62.7627L3.9375 62.7627C3.18164 62.7627 2.61621 62.915 2.24121 63.2197C1.86621 63.5303 1.67871 64.0107 1.67871 64.6611C1.67871 65.2881 1.80761 65.7861 2.06543 66.1553C2.32324 66.5244 2.7041 66.7852 3.208 66.9375C3.71191 67.0957 4.33007 67.1748 5.0625 67.1748L9.90527 67.1748L9.90527 69.249ZM2.95312 78.75C2.31445 78.75 1.77539 78.5947 1.33593 78.2842C0.89648 77.9736 0.562496 77.5195 0.33398 76.9219C0.111324 76.3301 -4.01949e-06 75.6035 -3.9747e-06 74.7422C-3.93935e-06 74.0625 0.0498008 73.4766 0.14941 72.9844C0.24316 72.498 0.389645 72.0381 0.588863 71.6045L2.37304 71.6045C2.15625 72.0674 1.96875 72.5859 1.81054 73.1602C1.65234 73.7402 1.57324 74.2881 1.57324 74.8037C1.57324 75.4834 1.67871 75.9727 1.88964 76.2715C2.10644 76.5703 2.39355 76.7197 2.75097 76.7197C2.96191 76.7197 3.14941 76.6582 3.31347 76.5352C3.48339 76.418 3.65625 76.1953 3.83203 75.8672C4.01367 75.5449 4.23046 75.0703 4.48242 74.4434C4.72851 73.8281 4.97461 73.3096 5.2207 72.8877C5.46679 72.4658 5.76269 72.1465 6.10839 71.9297C6.45996 71.7129 6.9082 71.6045 7.45312 71.6045C8.31445 71.6045 8.96777 71.9443 9.41308 72.624C9.86425 73.3096 10.0898 74.2148 10.0898 75.3398C10.0898 75.9375 10.0283 76.5 9.90527 77.0273C9.78808 77.5605 9.61523 78.082 9.38671 78.5918L7.83105 77.9414C8.02441 77.502 8.18261 77.0596 8.30566 76.6143C8.43457 76.1748 8.49902 75.7266 8.49902 75.2695C8.49902 74.7363 8.41699 74.3291 8.25293 74.0479C8.08886 73.7725 7.85449 73.6348 7.5498 73.6348C7.32129 73.6348 7.12793 73.7021 6.96972 73.8369C6.81152 73.9717 6.65332 74.2031 6.49511 74.5312C6.33691 74.8652 6.14062 75.3281 5.90625 75.9199C5.68359 76.5 5.44921 77.001 5.20312 77.4229C4.96289 77.8506 4.66699 78.1787 4.31543 78.4072C3.96386 78.6357 3.50976 78.75 2.95312 78.75Z" fill="white"/>
</svg>
